<svg id="Layer_1" data-name="Layer 1" xmlns="http://www.w3.org/2000/svg" viewBox="0 0 95.47 99.48"><defs><style>.cls-1{fill:none;}.cls-2{fill:#ffde5d;}.cls-3{fill:#ff6427;}.cls-4{fill:#e5b92e;}.cls-5{fill:#b54624;}</style></defs><title>award-3</title><path class="cls-1" d="M1094.66,89.89c0.61,9.87,3.2,26.23,11.06,34.22a16.09,16.09,0,0,0,5.43,3.71c-3.06-12.48-3.47-29.35-3.45-37.93h-13Z" transform="translate(-1089.02 -84.4)"/><path class="cls-2" d="M1136.76,156.28a9.15,9.15,0,0,1-3.31-.62c-2,7.85-7.16,16.2-9,19.07h12.33V156.28Z" transform="translate(-1089.02 -84.4)"/><path class="cls-2" d="M1136.76,151.24V84.4H1089s-0.8,45,24,49.65c1.84,4.72,4.31,8.07,7.61,8.9a2.74,2.74,0,0,0,1.63,4.94h1.48a2.78,2.78,0,0,0-.07.61,2.74,2.74,0,0,0,2.74,2.74h10.29Zm-31-27.14c-7.86-8-10.45-24.35-11.06-34.22h13c0,8.58.39,25.45,3.45,37.93A16.09,16.09,0,0,1,1105.72,124.11Z" transform="translate(-1089.02 -84.4)"/><path class="cls-3" d="M1129.74,151.24c0,1.91,1.51,3.56,3.7,4.41a26.53,26.53,0,0,0,.8-4.41h-4.5Z" transform="translate(-1089.02 -84.4)"/><path class="cls-3" d="M1136.76,151.24h-2.51a26.53,26.53,0,0,1-.8,4.41,9.15,9.15,0,0,0,3.31.62v-5Z" transform="translate(-1089.02 -84.4)"/><path class="cls-3" d="M1112.17,179.3h24.59V175.8h-13s0.27-.4.71-1.07h-12.26a4.57,4.57,0,1,0,0,9.15h24.59V179.3h-24.59Z" transform="translate(-1089.02 -84.4)"/><path class="cls-3" d="M1136.6,175.8h0.16v-1.07h-12.33c-0.43.67-.71,1.07-0.71,1.07h12.88Z" transform="translate(-1089.02 -84.4)"/><path class="cls-4" d="M1136.76,174.73h12.33c-1.86-2.88-7-11.22-9-19.07a9.14,9.14,0,0,1-3.31.62v18.45Z" transform="translate(-1089.02 -84.4)"/><path class="cls-4" d="M1139.27,151.24H1147a2.75,2.75,0,0,0,2.75-2.74,2.78,2.78,0,0,0-.07-0.61h1.48a2.74,2.74,0,0,0,1.63-4.94c3.29-.83,5.76-4.18,7.61-8.9,24.85-4.69,24-49.65,24-49.65h-47.73v66.85h2.51Zm26.54-61.36h13c-0.61,9.87-3.2,26.23-11.06,34.22a16.08,16.08,0,0,1-5.43,3.71C1165.42,115.34,1165.83,98.46,1165.81,89.89Z" transform="translate(-1089.02 -84.4)"/><path class="cls-5" d="M1143.77,151.24h-7v5a9.14,9.14,0,0,0,3.31-.62C1142.26,154.8,1143.77,153.16,1143.77,151.24Z" transform="translate(-1089.02 -84.4)"/><path class="cls-5" d="M1161.34,174.73h-24.59v9.15h24.59A4.57,4.57,0,1,0,1161.34,174.73Z" transform="translate(-1089.02 -84.4)"/></svg>