<svg id="Layer_1" data-name="Layer 1" xmlns="http://www.w3.org/2000/svg" viewBox="0 0 123.88 109.34"><defs><style>.cls-1{fill:#ffde5d;}.cls-2{fill:#fff;}.cls-3{fill:#e5b92e;}.cls-4{fill:#dadada;}.cls-5{fill:#b54624;}.cls-6{fill:#ff6427;}</style></defs><title>award-4</title><path class="cls-1" d="M1275.84,177.52c-47.63-27.45-41.71-79.15-41.65-79.66l0.07-.52,42-18.13V73.79l-46.66,20.13s-7.32,58.1,46.66,89.21v-5.35Z" transform="translate(-1214.36 -73.79)"/><path class="cls-1" d="M1236,98.6c-0.48,5.39-3.21,51.64,40.34,77.07V81.19Z" transform="translate(-1214.36 -73.79)"/><path class="cls-2" d="M1234.2,97.85c-0.07.52-6,52.21,41.65,79.66l0.46,0.26v-2.11C1232.75,150.24,1235.48,104,1236,98.6l40.34-17.4v-2l-42,18.13Z" transform="translate(-1214.36 -73.79)"/><path class="cls-3" d="M1316.64,98.6l-40.34-17.4v94.47C1319.86,150.24,1317.12,104,1316.64,98.6Z" transform="translate(-1214.36 -73.79)"/><path class="cls-3" d="M1323,93.92L1276.3,73.79V79.2l42,18.13,0.07,0.52c0.07,0.52,6,52.21-41.65,79.66l-0.46.26v5.35C1330.28,152,1323,93.92,1323,93.92Z" transform="translate(-1214.36 -73.79)"/><path class="cls-4" d="M1316.64,98.6c0.48,5.39,3.21,51.64-40.34,77.07v2.11l0.46-.26c47.63-27.45,41.71-79.15,41.65-79.66l-0.07-.52-42-18.13v2Z" transform="translate(-1214.36 -73.79)"/><polygon class="cls-5" points="123.88 97.9 96.45 97.9 96.45 73.49 123.88 73.49 115.94 85.7 123.88 97.9"/><polygon class="cls-5" points="0 97.9 27.43 97.9 27.43 73.49 0 73.49 7.94 85.7 0 97.9"/><rect class="cls-6" x="20.46" y="67.94" width="82.97" height="24.41"/><path class="cls-5" d="M1266.59,132.59v-4.1h6.67V108.43a8.92,8.92,0,0,1-3,.4,12.44,12.44,0,0,1-4-.59v-3.46a14.53,14.53,0,0,0,6-.89,7.68,7.68,0,0,0,3.9-3h4.7v27.62h6.52v4.1h-20.85Z" transform="translate(-1214.36 -73.79)"/></svg>