<svg id="Layer_1" data-name="Layer 1" xmlns="http://www.w3.org/2000/svg" viewBox="0 0 90.54 90.54"><defs><style>.cls-1{fill:#bcbec0;stroke:#231f20;}.cls-1,.cls-2{stroke-miterlimit:10;}.cls-2{fill:#1c75bc;stroke:#fff;}.cls-3{fill:#fff;}</style></defs><title>award-0</title><circle class="cls-1" cx="45.27" cy="45.27" r="44.77"/><circle class="cls-2" cx="45.27" cy="45.27" r="29.55"/><path class="cls-3" d="M31.78,46.44v6.31H31V46.44h0.82Z" transform="translate(-4.73 -4.73)"/><path class="cls-3" d="M33.2,52.75V46.44h0.89l2,3.19a17.86,17.86,0,0,1,1.13,2.05h0c-0.08-.84-0.09-1.61-0.09-2.6V46.44h0.77v6.31H37.12l-2-3.2a20.11,20.11,0,0,1-1.18-2.11h0c0,0.8.07,1.56,0.07,2.6v2.7H33.2Z" transform="translate(-4.73 -4.73)"/><path class="cls-3" d="M40.19,46.44v6.31H39.37V46.44h0.82Z" transform="translate(-4.73 -4.73)"/><path class="cls-3" d="M46,52.54a4.05,4.05,0,0,1-1.67.3,3,3,0,0,1-3.12-3.19,3.14,3.14,0,0,1,3.3-3.32,3.39,3.39,0,0,1,1.5.28l-0.2.67A3,3,0,0,0,44.56,47a2.35,2.35,0,0,0-2.46,2.6,2.3,2.3,0,0,0,2.43,2.54,3.26,3.26,0,0,0,1.33-.26Z" transform="translate(-4.73 -4.73)"/><path class="cls-3" d="M47.86,46.44v6.31H47V46.44h0.82Z" transform="translate(-4.73 -4.73)"/><path class="cls-3" d="M50.31,50.76l-0.66,2H48.81L51,46.44h1l2.15,6.31H53.22l-0.67-2H50.31Zm2.07-.64-0.62-1.82c-0.14-.41-0.23-0.79-0.33-1.15h0c-0.09.38-.2,0.76-0.32,1.14l-0.62,1.83h1.9Z" transform="translate(-4.73 -4.73)"/><path class="cls-3" d="M55,52.75V46.44h0.89l2,3.19a17.94,17.94,0,0,1,1.13,2.05h0C59,50.83,59,50.06,59,49.08V46.44h0.77v6.31H58.94l-2-3.2a20.2,20.2,0,0,1-1.18-2.11h0c0,0.8.07,1.56,0.07,2.6v2.7H55Z" transform="translate(-4.73 -4.73)"/><path class="cls-3" d="M62.39,47.13H60.47V46.44h4.68v0.69H63.21v5.62H62.39V47.13Z" transform="translate(-4.73 -4.73)"/><path class="cls-3" d="M69.12,49.79H66.66v2.28H69.4v0.68H65.85V46.44h3.41v0.68H66.66v2h2.45v0.67Z" transform="translate(-4.73 -4.73)"/><path class="cls-3" d="M14.61,44.87a8.53,8.53,0,0,1-1,0v0c0.24,0.18.5,0.39,0.79,0.63s0.61,0.51,1,.84c0,0.17,0,.25,0,0.42C15,47,14.8,47.13,14.38,47.4a8.55,8.55,0,0,1-.87.5h0c0.27,0,.64.06,1,0.11l0.94,0.13c0,0.22,0,.32,0,0.54l-2.2-.33c0-.31,0-0.46,0-0.77,0.43-.3.65-0.45,1.09-0.73a5,5,0,0,1,.76-0.4v0a5.49,5.49,0,0,1-.71-0.51c-0.41-.34-0.61-0.52-1-0.88,0-.29,0-0.44.06-0.73h2.21c0,0.21,0,.31,0,0.52h-1Z" transform="translate(-4.73 -4.73)"/><path class="cls-3" d="M15,41.24c-0.11.63-.16,0.95-0.25,1.59L15.56,43c0.09-.7.15-1,0.27-1.73l0.23,0.05c-0.16.88-.23,1.33-0.34,2.24l-2.18-.33c0.11-.93.18-1.39,0.34-2.29L14.12,41c-0.12.68-.18,1-0.27,1.72l0.69,0.11c0.09-.65.14-1,0.25-1.6Z" transform="translate(-4.73 -4.73)"/><path class="cls-3" d="M14.07,40.13a10.55,10.55,0,0,1,.2-1.13,3.34,3.34,0,0,1,.67-1.52,0.82,0.82,0,0,1,.91-0.29,1,1,0,0,1,.67.8,4.11,4.11,0,0,1-.11,1.75c-0.08.35-.15,0.64-0.22,0.89Zm2,0c0-.12.08-0.3,0.13-0.5,0.24-1,.07-1.7-0.49-1.88s-1,.24-1.22,1.33a4.85,4.85,0,0,0-.11.62Z" transform="translate(-4.73 -4.73)"/><path class="cls-3" d="M16.63,36.21l0.54,0.61L17,37.3c-0.69-.78-1-1.18-1.68-2l0.2-.58c1-.17,1.51-0.23,2.51-0.33l-0.19.47-0.79.1C16.89,35.44,16.8,35.69,16.63,36.21ZM16.84,35l-0.72.11a4.21,4.21,0,0,1-.44,0h0c0.1,0.1.21,0.21,0.31,0.33L16.46,36C16.6,35.59,16.68,35.38,16.84,35Z" transform="translate(-4.73 -4.73)"/><path class="cls-3" d="M16.24,32.94l0.2-.46,1.79,0.87c0.25-.57.38-0.85,0.66-1.39l0.21,0.11c-0.35.71-.52,1.07-0.84,1.81Z" transform="translate(-4.73 -4.73)"/><path class="cls-3" d="M17.6,30.1l0.81,0.47c0.34-.62.51-0.93,0.87-1.52l-0.79-.5,0.25-.41,1.87,1.23-0.24.39-0.88-.57c-0.36.59-.53,0.89-0.87,1.51l0.91,0.52-0.21.4-2-1.09Z" transform="translate(-4.73 -4.73)"/><path class="cls-3" d="M20.78,27.85l0.37,0.7-0.25.38c-0.48-.9-0.72-1.35-1.15-2.28l0.33-.46c1,0.14,1.51.23,2.5,0.43L22.28,27l-0.78-.14C21.21,27.24,21.06,27.44,20.78,27.85Zm0.49-1.06-0.72-.11c-0.16,0-.3-0.06-0.44-0.09h0c0.08,0.12.15,0.25,0.22,0.39l0.32,0.66C20.89,27.29,21,27.12,21.27,26.78Z" transform="translate(-4.73 -4.73)"/><path class="cls-3" d="M21.91,24a6.66,6.66,0,0,1,.56-0.68,2,2,0,0,1,.82-0.59,0.54,0.54,0,0,1,.55.11,0.56,0.56,0,0,1,.15.52,2,2,0,0,1-.55.93,2.46,2.46,0,0,1-.26.25l0.67,0.6-0.29.32ZM23,24.34a2.5,2.5,0,0,0,.27-0.26c0.37-.39.48-0.74,0.25-1s-0.55-.07-0.89.3a2.81,2.81,0,0,0-.27.33Z" transform="translate(-4.73 -4.73)"/><path class="cls-3" d="M26,21.58c-0.4.34-.6,0.52-1,0.88L25.55,23c0.43-.39.64-0.59,1.08-1l0.16,0.18c-0.57.48-.85,0.73-1.39,1.25l-1.57-1.6c0.55-.53.84-0.78,1.42-1.28l0.16,0.18c-0.44.37-.65,0.56-1.08,1l0.49,0.51c0.39-.36.59-0.54,1-0.89Z" transform="translate(-4.73 -4.73)"/><path class="cls-3" d="M25.77,20.21l0.35-.28,1.27,1.54c0.44-.35.67-0.53,1.13-0.86l0.15,0.19c-0.59.43-.88,0.66-1.45,1.12Z" transform="translate(-4.73 -4.73)"/><path class="cls-3" d="M29.09,19.64c0,0.31.07,0.46,0.13,0.76l-0.36.25c-0.17-1-.25-1.47-0.37-2.46l0.46-.3c0.91,0.48,1.35.73,2.21,1.25l-0.39.23L30.08,19C29.68,19.25,29.48,19.38,29.09,19.64Zm0.79-.79-0.64-.35c-0.15-.08-0.26-0.16-0.38-0.24h0c0,0.14.06,0.28,0.09,0.43s0.06,0.43.1,0.71Z" transform="translate(-4.73 -4.73)"/><path class="cls-3" d="M31.77,16.27l1.09,1.94-0.37.2-1.12-1.93Z" transform="translate(-4.73 -4.73)"/><path class="cls-3" d="M33.52,17.88l-1-2,0.44-.22c0.61,0.21.91,0.32,1.5,0.55a5.46,5.46,0,0,1,.86.42h0a6.68,6.68,0,0,1-.43-0.81L34.47,15l0.39-.16,0.91,2-0.4.16c-0.57-.25-0.87-0.36-1.46-0.59A9,9,0,0,1,33,16h0c0.15,0.24.28,0.47,0.46,0.8l0.44,0.84Z" transform="translate(-4.73 -4.73)"/><path class="cls-3" d="M36,14.39l0.84,2.05-0.4.15-0.86-2Z" transform="translate(-4.73 -4.73)"/><path class="cls-3" d="M39.73,15.44a3.26,3.26,0,0,1-.8.34C38,16,37.24,15.92,37,15.24s0.28-1.34,1.32-1.65a2.65,2.65,0,0,1,.83-0.14l0,0.25a2.34,2.34,0,0,0-.7.11c-0.78.24-1.18,0.73-1,1.27a1.11,1.11,0,0,0,1.52.45,2.59,2.59,0,0,0,.64-0.28Z" transform="translate(-4.73 -4.73)"/><path class="cls-3" d="M40.62,14.56c-0.06.3-.09,0.45-0.15,0.75L40,15.42c0.18-1,.28-1.45.52-2.41l0.53-.12c0.68,0.75,1,1.14,1.63,1.91l-0.45.09-0.51-.6Zm1-.46-0.48-.55a3.9,3.9,0,0,1-.27-0.35h0c0,0.14,0,.28-0.07.43s-0.1.42-.16,0.7Z" transform="translate(-4.73 -4.73)"/><path class="cls-3" d="M43.09,12.75l-1,.19L42,12.7c1-.2,1.53-0.29,2.56-0.43l0,0.24-1.05.15,0.35,1.93-0.43.07Z" transform="translate(-4.73 -4.73)"/><path class="cls-3" d="M45.39,12.17l0.28,2.19-0.42,0-0.3-2.18Z" transform="translate(-4.73 -4.73)"/><path class="cls-3" d="M47.13,14.22c-0.5-.85-0.77-1.27-1.32-2.09l0.49,0c0.26,0.41.39,0.62,0.64,1a6.7,6.7,0,0,1,.43.79h0a6.65,6.65,0,0,1,.33-0.84c0.2-.45.31-0.67,0.52-1.12l0.48,0c-0.47.9-.69,1.35-1.1,2.26Z" transform="translate(-4.73 -4.73)"/><path class="cls-3" d="M49.39,13.43l-0.33.7H48.62c0.41-.9.64-1.34,1.11-2.23h0.55c0.47,0.88.7,1.33,1.11,2.23H50.92l-0.34-.7h-1.2Zm1.11-.22-0.33-.64c-0.08-.14-0.13-0.27-0.18-0.4h0c-0.05.13-.11,0.26-0.17,0.4l-0.33.64h1Z" transform="translate(-4.73 -4.73)"/><path class="cls-3" d="M53.09,12.06a8.2,8.2,0,0,1,1,0,2.66,2.66,0,0,1,1.37.44,0.85,0.85,0,0,1,.36.85,1,1,0,0,1-.61.78,3,3,0,0,1-1.5.15l-0.77-.09Zm0.26,2,0.43,0.06c0.91,0.09,1.45-.18,1.54-0.76s-0.33-.91-1.28-1a3.61,3.61,0,0,0-.53,0Z" transform="translate(-4.73 -4.73)"/><path class="cls-3" d="M58.06,13.91l-1.3-.25-0.15.78c0.57,0.1.85,0.15,1.41,0.27L58,14.95c-0.73-.15-1.09-0.22-1.82-0.34l0.39-2.17c0.75,0.12,1.12.19,1.86,0.35L58.35,13c-0.56-.12-0.84-0.17-1.41-0.27l-0.13.68,1.31,0.25Z" transform="translate(-4.73 -4.73)"/><path class="cls-3" d="M62.52,15.19c0.08-.3.18-0.66,0.29-0.91h0c-0.2.21-.43,0.42-0.7,0.65l-0.92.84-0.31-.09c-0.07-.46-0.11-0.69-0.2-1.15a8.91,8.91,0,0,1-.13-0.93h0c-0.09.26-.22,0.61-0.34,0.92l-0.36.89-0.39-.1c0.33-.83.5-1.24,0.84-2.07l0.56,0.15c0.1,0.47.15,0.71,0.24,1.18a5.58,5.58,0,0,1,.09.8h0a6,6,0,0,1,.58-0.6l0.94-.82,0.55,0.19c-0.23.86-.35,1.28-0.6,2.14l-0.39-.14Z" transform="translate(-4.73 -4.73)"/><path class="cls-3" d="M65.29,16.18c-0.48-.21-0.73-0.31-1.22-0.5l-0.31.74c0.53,0.21.8,0.32,1.33,0.55l-0.1.22c-0.68-.3-1-0.43-1.71-0.69l0.84-2.05c0.71,0.27,1.06.41,1.75,0.71l-0.1.22C65.24,15.13,65,15,64.44,14.82l-0.27.64c0.49,0.19.74,0.29,1.23,0.5Z" transform="translate(-4.73 -4.73)"/><path class="cls-3" d="M66.47,15.41l0.41,0.19L66,17.37c0.51,0.24.77,0.37,1.27,0.63l-0.12.21c-0.65-.34-1-0.5-1.64-0.8Z" transform="translate(-4.73 -4.73)"/><path class="cls-3" d="M69.06,16.71l-0.48.8c0.58,0.32.86,0.49,1.42,0.83l0.51-.78,0.39,0.24-1.25,1.85-0.36-.23,0.58-.87C69.31,18.21,69,18,68.45,17.73l-0.53.9-0.37-.2,1.12-1.93Z" transform="translate(-4.73 -4.73)"/><path class="cls-3" d="M73.28,20.85a1.4,1.4,0,0,1-2,0,1.28,1.28,0,0,1-.57-1.77,1.38,1.38,0,0,1,2,0A1.26,1.26,0,0,1,73.28,20.85Zm-2.14-1.54a0.94,0.94,0,0,0,.34,1.34,1,1,0,0,0,1.44-.08,0.93,0.93,0,0,0-.31-1.37A1,1,0,0,0,71.13,19.31Z" transform="translate(-4.73 -4.73)"/><path class="cls-3" d="M74.42,20.41a6.15,6.15,0,0,1,.69.53,1.94,1.94,0,0,1,.63.82,0.48,0.48,0,0,1-.09.5,0.71,0.71,0,0,1-.87,0h0a0.63,0.63,0,0,1,.06.67,2.81,2.81,0,0,0-.24.62l-0.32-.3a2.18,2.18,0,0,1,.2-0.54,0.59,0.59,0,0,0-.21-0.77l-0.31-.27-0.64.73L73,22.08Zm-0.33,1.06,0.34,0.3c0.36,0.31.69,0.4,0.87,0.21s0-.53-0.31-0.84a2.55,2.55,0,0,0-.36-0.27Z" transform="translate(-4.73 -4.73)"/><path class="cls-3" d="M75.85,23.77L75.1,24l-0.32-.31c1-.32,1.44-0.47,2.43-0.74l0.38,0.4c-0.33,1-.51,1.44-0.89,2.37l-0.31-.35,0.28-.74C76.35,24.29,76.19,24.11,75.85,23.77Zm0.94,0.66L77,23.74c0.05-.16.12-0.28,0.17-0.41h0l-0.42.15-0.71.2Z" transform="translate(-4.73 -4.73)"/><path class="cls-3" d="M78.72,24.7a6.32,6.32,0,0,1,.6.66,2,2,0,0,1,.49.94,0.49,0.49,0,0,1-.18.48,0.7,0.7,0,0,1-.85-0.19h0a0.66,0.66,0,0,1-.06.68,2.82,2.82,0,0,0-.34.58L78.1,27.5A2.28,2.28,0,0,1,78.39,27a0.62,0.62,0,0,0-.08-0.82l-0.26-.33-0.75.61L77,26.12Zm-0.5,1,0.29,0.36c0.3,0.38.62,0.53,0.82,0.37s0.13-.53-0.17-0.91a2.64,2.64,0,0,0-.31-0.34Z" transform="translate(-4.73 -4.73)"/><path class="cls-3" d="M80.15,29.28l-0.78.08L79.12,29c1-.11,1.5-0.15,2.52-0.2l0.29,0.5c-0.51.9-.78,1.35-1.33,2.21l-0.23-.43,0.42-.69C80.55,29.92,80.42,29.7,80.15,29.28Zm0.79,0.89,0.37-.64c0.08-.15.17-0.26,0.25-0.38h0l-0.44.06-0.73,0C80.62,29.6,80.73,29.79,80.94,30.16Z" transform="translate(-4.73 -4.73)"/><path class="cls-3" d="M81.62,32.74a2.69,2.69,0,0,0,.21.83c0.19,0.44.44,0.64,0.64,0.55s0.23-.33.13-0.83a1.06,1.06,0,0,1,.16-1.18c0.31-.16.75,0.17,1,0.86a2.67,2.67,0,0,1,.22.84l-0.27,0A2.31,2.31,0,0,0,83.59,33c-0.2-.48-0.45-0.58-0.59-0.51s-0.18.34-.09,0.87,0.06,1-.24,1.15-0.73-.14-1.07-0.92a3.06,3.06,0,0,1-.25-0.9h0.27Z" transform="translate(-4.73 -4.73)"/><path class="cls-3" d="M83.2,35.72l-0.78-.11-0.17-.46c1,0.12,1.5.2,2.5,0.4l0.19,0.59c-0.67.82-1,1.22-1.73,2l-0.14-.5L83.62,37C83.46,36.48,83.38,36.22,83.2,35.72Zm0.6,1.11,0.49-.58a3.77,3.77,0,0,1,.32-0.33h0l-0.44,0-0.72-.13C83.59,36.17,83.66,36.38,83.8,36.83Z" transform="translate(-4.73 -4.73)"/><path class="cls-3" d="M85.57,38.37l-1.26.37a0.8,0.8,0,0,0-.47,1.08c0.13,0.57.41,0.89,0.88,0.78L86,40.3l0.1,0.54-1.26.27c-0.66.14-1-.43-1.23-1.25s-0.08-1.42.58-1.62l1.25-.38Zm0.9,1.75-0.54-.69L85.84,39l0.5,0.46C86.4,39.72,86.42,39.86,86.47,40.12Z" transform="translate(-4.73 -4.73)"/><path class="cls-3" d="M86.23,41.79A11.11,11.11,0,0,1,86.44,43a4,4,0,0,1-.08,1.8,0.9,0.9,0,0,1-.74.69,1,1,0,0,1-.9-0.53,4.64,4.64,0,0,1-.51-1.78c0-.37-0.08-0.68-0.11-0.94Zm-1.84.88c0,0.13,0,.33.06,0.53,0.14,1.12.53,1.72,1.12,1.66s0.81-.68.66-1.85a5.2,5.2,0,0,0-.12-0.64Z" transform="translate(-4.73 -4.73)"/><path class="cls-3" d="M85.61,48.5c0-.7,0-1.05,0-1.74l-0.79,0c0,0.75,0,1.13,0,1.89H84.58c0-1,0-1.48-.07-2.43l2.2-.16c0.05,1,.07,1.47.07,2.49H86.54c0-.76,0-1.14,0-1.89l-0.69,0c0,0.69,0,1,0,1.75H85.61Z" transform="translate(-4.73 -4.73)"/></svg>