<svg id="Layer_1" data-name="Layer 1" xmlns="http://www.w3.org/2000/svg" viewBox="0 0 97.61 132.54"><defs><style>.cls-1{fill:#2fac66;}.cls-2{fill:#ffde5d;}.cls-3{fill:#e5b92e;}.cls-4{fill:#fff;}.cls-5{fill:#1e7c44;}.cls-6{fill:#c6c6c6;}.cls-7{fill:#c19721;}</style></defs><title>award-1</title><path class="cls-1" d="M861.36,158.23a5.44,5.44,0,0,1-5.09,2.34,5.5,5.5,0,0,1-4.5-3.35,5.48,5.48,0,0,1-9.17-3,5.51,5.51,0,0,1-5.62.06,5.41,5.41,0,0,1-1.7-1.6V196l26.13-17V158.29Z" transform="translate(-812.61 -63.47)"/><path class="cls-2" d="M818.72,112a42.75,42.75,0,0,1,42.7-42.7V65.67A5.49,5.49,0,0,0,852,66.84a5.49,5.49,0,0,0-9.19,2.95,5.5,5.5,0,0,0-8.38,4.79,5.56,5.56,0,0,0-5.51,1.08h0A5.46,5.46,0,0,0,827.21,81a5.48,5.48,0,0,0-5.71,7.78,5.5,5.5,0,0,0-4,8.8,5.49,5.49,0,0,0-2,9.44,5.47,5.47,0,0,0-2.89,4.79,0.27,0.27,0,0,0,0,.13s0,0.05,0,.07a5.48,5.48,0,0,0,2.87,4.83,5.49,5.49,0,0,0,2,9.44,5.49,5.49,0,0,0,3.93,8.82,5.48,5.48,0,0,0,5.67,7.8,5.49,5.49,0,0,0,7.15,6.46,5.46,5.46,0,0,0,1,3.3v-6.91A42.64,42.64,0,0,1,818.72,112Z" transform="translate(-812.61 -63.47)"/><path class="cls-3" d="M910.22,112.15a5.49,5.49,0,0,0-.77-2.81v5.57A5.52,5.52,0,0,0,910.22,112.15Z" transform="translate(-812.61 -63.47)"/><path class="cls-2" d="M837,154.29a5.51,5.51,0,0,0,5.62-.06,5.48,5.48,0,0,0,9.17,3,5.5,5.5,0,0,0,4.5,3.35,5.44,5.44,0,0,0,5.09-2.34l0.05,0.06v-3.54a42.47,42.47,0,0,1-26.13-9v6.91A5.41,5.41,0,0,0,837,154.29Z" transform="translate(-812.61 -63.47)"/><path class="cls-4" d="M820.55,112a40.91,40.91,0,0,1,40.87-40.87V69.35a42.67,42.67,0,0,0-26.13,76.43v-2.34A40.8,40.8,0,0,1,820.55,112Z" transform="translate(-812.61 -63.47)"/><path class="cls-4" d="M835.29,143.44v2.34a42.47,42.47,0,0,0,26.13,9v-1.83A40.68,40.68,0,0,1,835.29,143.44Z" transform="translate(-812.61 -63.47)"/><path class="cls-2" d="M861.41,137.28V122l-15.27,11.09,5.83-18L836.71,104h18.87l5.83-17.95V74.84a37.2,37.2,0,0,0-26.13,63.68v-1.24h26.13Z" transform="translate(-812.61 -63.47)"/><path class="cls-2" d="M861.41,137.28H835.29v1.24a37.08,37.08,0,0,0,26.13,10.73v-12Z" transform="translate(-812.61 -63.47)"/><path class="cls-3" d="M822.38,112a39.08,39.08,0,0,1,39-39V71.18a40.85,40.85,0,0,0-26.13,72.26V141A38.91,38.91,0,0,1,822.38,112Z" transform="translate(-812.61 -63.47)"/><path class="cls-3" d="M835.29,141v2.48a40.68,40.68,0,0,0,26.13,9.47v-1.83A38.84,38.84,0,0,1,835.29,141Z" transform="translate(-812.61 -63.47)"/><path class="cls-3" d="M822.38,112A38.91,38.91,0,0,0,835.29,141v-2.45a37.2,37.2,0,0,1,26.13-63.68V73A39.08,39.08,0,0,0,822.38,112Z" transform="translate(-812.61 -63.47)"/><path class="cls-3" d="M835.29,138.52V141a38.84,38.84,0,0,0,26.13,10.12v-1.83A37.08,37.08,0,0,1,835.29,138.52Z" transform="translate(-812.61 -63.47)"/><polygon class="cls-3" points="42.97 40.55 24.1 40.55 39.37 51.65 33.54 69.6 48.8 58.51 48.8 22.61 42.97 40.55"/><path class="cls-5" d="M887.54,196V152.63a5.37,5.37,0,0,1-7.39,1.65,5.5,5.5,0,0,1-9.19,3,5.51,5.51,0,0,1-4.52,3.35c-0.18,0-.37,0-0.57,0a5.5,5.5,0,0,1-4.46-2.34V179h0Z" transform="translate(-812.61 -63.47)"/><path class="cls-3" d="M909.45,114.91v-5.57a5.5,5.5,0,0,0-2.09-2,5.49,5.49,0,0,0-2-9.44A5.5,5.5,0,0,0,906,92.3a5.45,5.45,0,0,0-4.57-3.24,5.51,5.51,0,0,0-5.65-7.83,5.49,5.49,0,0,0-7.16-6.48,5.49,5.49,0,0,0-8.34-4.85,5.49,5.49,0,0,0-9.17-3,5.49,5.49,0,0,0-9.59-1l-0.15-.19v3.68h0a42.7,42.7,0,0,1,0,85.4h0v3.54a5.5,5.5,0,0,0,4.46,2.34c0.2,0,.38,0,0.57,0a5.51,5.51,0,0,0,4.52-3.35,5.5,5.5,0,0,0,9.19-3,5.55,5.55,0,0,0,8.36-4.83,5.44,5.44,0,0,0,5.51-1.1v0a5.5,5.5,0,0,0,1.67-5.36,5.5,5.5,0,0,0,5.69-7.8,5.48,5.48,0,0,0,3.93-8.8,5.49,5.49,0,0,0,2-9.44A5.55,5.55,0,0,0,909.45,114.91Z" transform="translate(-812.61 -63.47)"/><path class="cls-6" d="M861.42,69.35h0v1.83h0a40.87,40.87,0,0,1,0,81.74h0v1.83h0A42.7,42.7,0,0,0,861.42,69.35Z" transform="translate(-812.61 -63.47)"/><path class="cls-3" d="M861.42,86.07l5.83,18h18.87l-15.27,11.09,5.83,18L861.42,122h0v15.31h26.13v1.24a37.2,37.2,0,0,0-26.13-63.68h0V86.07h0Z" transform="translate(-812.61 -63.47)"/><path class="cls-3" d="M861.41,137.28v12h0a37.08,37.08,0,0,0,26.13-10.73v-1.24H861.41Z" transform="translate(-812.61 -63.47)"/><path class="cls-7" d="M861.42,71.18h0v3.66h0a37.21,37.21,0,0,1,0,74.42h0v3.66h0A40.87,40.87,0,0,0,861.42,71.18Z" transform="translate(-812.61 -63.47)"/><polygon class="cls-7" points="64.08 69.6 58.24 51.65 73.51 40.55 54.64 40.55 48.81 22.6 48.8 22.61 48.8 58.51 48.81 58.5 64.08 69.6"/></svg>